<svg width="25" height="24" viewBox="0 0 25 24" fill="none" xmlns="http://www.w3.org/2000/svg">
<path d="M21.3566 8.36985L14.4266 2.82985C13.3566 1.96985 11.6266 1.96985 10.5666 2.81985L3.6366 8.36985C2.8566 8.98985 2.3566 10.2998 2.5266 11.2798L3.8566 19.2398C4.0966 20.6598 5.4566 21.8098 6.8966 21.8098H18.0966C19.5266 21.8098 20.8966 20.6498 21.1366 19.2398L22.4666 11.2798C22.6266 10.2998 22.1266 8.98985 21.3566 8.36985ZM12.4966 15.4998C11.1166 15.4998 9.9966 14.3798 9.9966 12.9998C9.9966 11.6198 11.1166 10.4998 12.4966 10.4998C13.8766 10.4998 14.9966 11.6198 14.9966 12.9998C14.9966 14.3798 13.8766 15.4998 12.4966 15.4998Z" fill="#EB1D36"/>
</svg>
